<svg width="16" height="19" viewBox="0 0 16 19" fill="none" xmlns="http://www.w3.org/2000/svg">
<path d="M15.4784 12.963C14.976 14.3532 14.1274 15.5954 13.001 16.589C11.8747 17.5827 10.5024 18.2999 8.99514 18.6825C7.48794 19.0651 5.88821 19.1025 4.32548 18.7915C2.76275 18.4805 1.28093 17.83 0 16.8925C2.14489 17.0331 4.24655 16.5256 5.99925 15.4441C7.75195 14.3626 9.06427 12.7633 9.74531 10.879C10.4264 8.99472 10.4406 6.92363 9.78595 4.96703C9.13131 3.01043 7.84195 1.27038 6.10542 0C7.68781 0.103368 9.24112 0.556093 10.6396 1.32152C12.0381 2.08696 13.2424 3.14358 14.1551 4.40585C15.0678 5.66812 15.6632 7.10056 15.8931 8.5872C16.123 10.0738 15.9809 11.5729 15.4784 12.963Z" fill="#121212"/>
</svg>
