<svg width="14" height="14" viewBox="0 0 14 14" fill="none" xmlns="http://www.w3.org/2000/svg">
<path d="M6.99992 0.333496C3.35547 0.333496 0.333252 3.35572 0.333252 7.00016C0.333252 10.6446 3.35547 13.6668 6.99992 13.6668C10.6444 13.6668 13.6666 10.6446 13.6666 7.00016C13.6666 3.35572 10.6444 0.333496 6.99992 0.333496ZM6.99992 11.0002C6.73325 11.0002 6.55547 10.8224 6.55547 10.5557C6.55547 10.2891 6.73325 10.1113 6.99992 10.1113C7.26659 10.1113 7.44436 10.2891 7.44436 10.5557C7.44436 10.8224 7.26659 11.0002 6.99992 11.0002ZM7.44436 8.60016C7.44436 8.86683 7.26659 9.1335 6.99992 9.1335C6.73325 9.1335 6.55547 8.86683 6.55547 8.60016V3.5335C6.55547 3.26683 6.73325 3.00016 6.99992 3.00016C7.26659 3.00016 7.44436 3.26683 7.44436 3.5335V8.60016Z" fill="#AE2917"/>
</svg>
